<?xml version="1.0" encoding="utf-8"?>
<!-- Generator: Adobe Illustrator 22.0.0, SVG Export Plug-In . SVG Version: 6.00 Build 0)  -->
<svg version="1.1" id="Calque_1" xmlns="http://www.w3.org/2000/svg" xmlns:xlink="http://www.w3.org/1999/xlink" x="0px" y="0px"
	 viewBox="0 0 432 432" style="enable-background:new 0 0 432 432;" xml:space="preserve">
<style type="text/css">
	.st0{fill:#E0EDF3;}
	.st1{fill:#A5C0DF;}
	.st2{fill:#3F668A;}
	.st3{fill:#162740;}
	.st4{fill:#7B9EC7;}
	.st5{fill:#571419;}
	.st6{fill:#020203;}
	.st7{fill:#F39323;}
	.st8{fill:#8C633A;}
	.st9{fill:#6189B1;}
	.st10{fill:#A8C4D3;}
	.st11{fill:#989389;}
	.st12{fill:#DED3C6;}
	.st13{fill:#36502D;}
	.st14{fill:#DAA405;}
	.st15{fill:#DFE6ED;}
	.st16{fill:#D06C5D;}
	.st17{fill:#972021;}
	.st18{fill:#79986F;}
	.st19{fill:#FFF0BA;}
	.st20{fill:#C9D0D6;}
	.st21{fill:#E7E6E6;}
	.st22{fill:#CDCCCC;}
	.st23{fill:#B4B4B4;}
	.st24{fill:#FFFFFF;}
	.st25{fill:#9F1E29;}
	.st26{fill:#754D24;}
	.st27{fill:#A67D52;}
	.st28{fill:#CDE3EA;}
	.st29{fill:#F2F2F2;}
	.st30{fill:#C7B29A;}
	.st31{fill:#BCA48A;}
	.st32{fill:#D79A5D;}
	.st33{fill:#90443F;}
	.st34{fill:#D6A14D;}
	.st35{fill:#365461;}
	.st36{fill:#4C672C;}
	.st37{fill:#7D915E;}
	.st38{fill:#67302B;}
	.st39{fill:#96B8AA;}
	.st40{fill:#C5463F;}
	.st41{fill:#AFA453;}
	.st42{fill:#F1969D;}
	.st43{fill:#603914;}
	.st44{fill:#82171C;}
	.st45{fill:#066938;}
	.st46{fill:#9A9999;}
	.st47{fill:#C9913E;}
	.st48{fill:#E2A1BC;}
	.st49{fill:#808181;}
	.st50{fill:#C1292E;}
	.st51{fill:#EDCBA9;}
	.st52{fill:#699CBB;}
	.st53{fill:#4E4D4D;}
	.st54{fill:#C29245;}
	.st55{fill:#BB7E28;}
	.st56{fill:#C8904C;}
	.st57{fill:#BB7926;}
	.st58{fill:#A3282E;}
</style>
<g>
	<g>
		<path class="st21" d="M135.3,312.3c0,1.5,0,2.8,0,4.2c0,3.9,0.1,7.7,0.1,11.6c0,0.3,0.1,0.5,0.1,0.8c0.4,2.3,1.6,3.4,3.9,3.7
			c0.6,0.1,1.3,0.2,1.9,0.1c5.4-0.1,10.7,0.4,16,0.7c5.2,0.4,10.4,0.8,15.5,1.1c4.2,0.3,8.5,0.4,12.7,0.5c5.2,0.2,10.5,0.4,15.7,0.6
			c5.5,0.2,11,0.4,16.5,0.5c2.4,0.1,4.9,0.1,7.3,0.2c1.5,0,3-0.2,4.4-0.6c1.4-0.5,2.1-1.4,2.4-2.9c0.3-2,0.2-4,0.2-6.1
			c-0.1-4.2-0.1-8.4-0.2-12.6c0-0.2,0.1-0.4,0.1-0.8c0.4,0.1,0.8,0.2,1.1,0.4c1.7,0.7,3.3,1.7,4.6,3c0.6,0.6,1.2,1.2,1.7,1.8
			c3.7,4.2,8.4,6.5,13.8,7.5c3,0.5,6,0.8,9,0.9c3.4,0.2,6.7,0.7,9.9,1.7c3,0.9,6,1.6,9.2,2c3.6,0.4,7.2,0.2,10.8,0.1
			c3.9-0.2,7.8-0.3,11.7-0.3c2,0,4,0.3,5.8,1.2c1.1,0.5,2.2,1.3,3.2,2c0.9,0.7,0.9,1.3,0,2c-0.7,0.6-1.4,1.2-2.2,1.6
			c-2,1.1-4.2,1.6-6.5,1.9c-2,0.3-4.1,0.4-6.2,0.6c-4.8,0.3-9.4,1.3-14,2.5c-4.9,1.4-9.8,2.6-14.8,3.4c-4.9,0.8-9.9,1.3-14.8,1.5
			c-5.7,0.3-11.4,0.4-17.1,0.6c-5.7,0.2-11.4,0.1-17.1-0.3c-5.5-0.5-11.1-0.8-16.6-1.1c-4.5-0.2-8.9,0.1-13.4,0.7
			c-9.6,1.1-19.2,1.7-28.8,1.1c-5.1-0.3-10.1-0.7-15.2-1.1c-8.1-0.6-16.2-1.1-24.4-1.7c-4-0.3-8.1-0.8-12.1-1.2
			c-4.6-0.5-9.2-1.2-13.9-1.6c-2.8-0.2-5.6-0.2-8.4-0.1c-5.4,0.1-10.7,0.2-16.1,0.2c-3.4,0-6.7-0.4-9.9-1.6c-1-0.4-2-0.8-2.9-1.3
			c-2.7-1.4-4-3.8-4.6-6.6c-0.2-1.2,0.1-2.2,0.9-3.1c1.3-1.4,2.9-2.2,4.8-1.9c1.2,0.2,2.4,0.5,3.5,1c2.2,0.9,4.4,1.8,6.6,2.9
			c4.4,2.1,9,2.9,13.8,2.2c2.3-0.3,4.5-1.1,6.3-2.7c0.1-0.1,0.2-0.2,0.4-0.3c4.2-2.3,8.2-5.1,12.8-6.7c2.6-0.9,5.1-1.7,7.7-2.5
			c4.5-1.3,8.6-3.3,12.8-5.2c3.5-1.6,7.2-3.1,10.8-4.4C134.7,312.4,134.9,312.3,135.3,312.3z"/>
		<g>
			<path class="st26" d="M133.5,206.5c1.7-0.1,3.2-0.3,4.7-0.3c4.3-0.2,8.6-0.3,12.9-0.5c6.1-0.2,12.1-0.2,18.2,0
				c3.1,0.1,6.2,0.1,9.3,0.3c4.8,0.2,9.5,0.4,14.3,0.6c3.9,0.2,7.9,0.4,11.8,0.5c7.3,0.2,14.6,0.3,21.9,0.5c2.8,0.1,5.6,0.3,8.4,0.5
				c0.3,0,0.6,0.1,1,0.2c-0.1,3.5,0.2,7-0.6,10.6c-0.5,0-1,0-1.4,0c-10.2-0.1-20.4-0.3-30.6-0.4c-7.6-0.1-15.1-0.3-22.7-0.2
				c-12,0-24.1,0.1-36.1,0.2c-2.6,0-5.1,0.2-7.7,0.2c-0.9,0-1.7-0.1-2.6-0.2c-0.6,0-0.8-0.3-0.9-0.8c-0.1-1.7-0.4-3.4-0.4-5.1
				C133,210.4,133.3,208.5,133.5,206.5z"/>
			<path class="st26" d="M216.5,310.8c0,2.2-0.1,4.5-0.1,6.7c0.1,2.5,0.3,5,0.4,7.6c0,0.5,0,1.1,0.1,1.6c0,1.6,0,3.3,0,5
				c-13.6-0.4-27.2-0.9-40.8-1.6c-0.1-1.5-0.2-3-0.2-4.5c0.1-4.8,0.2-9.6,0.4-14.4c0-0.2,0-0.4,0.1-0.6
				C189.7,310.6,203.1,310.7,216.5,310.8z"/>
			<path class="st26" d="M150.7,286.4c13.6,0,27.2,0,40.9,0c-0.1,6.8-0.4,13.4,0.4,20.1c-13.3,0.2-26.6,0.4-40.1,0.6
				c-0.1-1.2-0.2-2.5-0.2-3.8c-0.1-2.8-0.2-5.6-0.3-8.5c-0.1-1.6-0.2-3.1-0.3-4.7C150.9,289,150.8,287.8,150.7,286.4z"/>
			<path class="st26" d="M153.2,261.3c0.3-6.2,0-12.4,0.1-18.7c0.2,0,0.4-0.1,0.6-0.1c12-0.1,24-0.2,36-0.3c0.5,0,1,0,1.5,0
				c0.8,6.4,1,12.7,2.7,18.9c-0.8,0.1-1.4,0.1-2,0.1c-12.7,0-25.4,0.1-38.1,0.1C153.6,261.4,153.4,261.3,153.2,261.3z"/>
			<path class="st27" d="M172.7,282.7c0.3-6,0-11.8-0.2-17.6c0,0,0,0,0.1-0.1c0,0,0.1-0.1,0.1-0.1c0.2,0,0.5-0.1,0.7-0.1
				c13.2,0.2,26.4,0,39.6-0.3c0.1,0,0.1,0.1,0.2,0.1c0,5.9-0.2,11.8,0.4,17.8c-0.5,0-0.9,0.1-1.3,0.1c-4.6,0-9.2-0.1-13.8-0.1
				c-8.2,0-16.4,0.2-24.5,0.2C173.6,282.8,173.2,282.7,172.7,282.7z"/>
			<path class="st27" d="M194.8,286.4c10.7-0.1,21.3,0.5,31.9-0.1c0,6.8,0,13.5,0,20.4c-10.5,0-21.1-0.1-31.8-0.1
				C195.3,299.9,195.1,293.2,194.8,286.4z"/>
			<path class="st27" d="M227.1,241.4c0,6.3,0,12.6,0,18.8c-10.2,0.8-20.3,0.9-30.5,0.9c-0.7-6.3-0.9-12.6-2-18.9
				C205.4,242,216.2,241.7,227.1,241.4z"/>
			<path class="st27" d="M140.6,328.2c-0.1-0.8-0.1-1.6-0.2-2.3c-0.2-2.1-0.4-4.3-0.6-6.4c-0.1-0.9-0.2-1.9-0.2-2.9c0-2,0-4,0-6.1
				c11.1,0,22.1,0,33.1,0c-0.1,6.4-0.3,12.8-0.4,19.3c-0.9-0.1-1.9-0.1-2.9-0.2c-6.9-0.5-13.7-1.1-20.6-1.5c-2.1-0.1-4.3,0-6.4,0
				C142,328.2,141.4,328.2,140.6,328.2z"/>
			<path class="st26" d="M209.9,223c0.5,5.2,0.3,10.3,1.1,15.5c-12.2,0.2-24.5,0.3-36.8,0.5c-0.4-5.4-0.8-10.9-1.2-16.4
				C185.3,222.6,197.6,222.8,209.9,223z"/>
			<path class="st26" d="M139.3,283.3c-0.2-6.6-0.5-13-0.7-19.7c5.2,0.6,10.3,0.9,15.4,1c5.1,0.1,10.2,0.2,15.4,0.3
				c0,0.4,0.1,0.8,0.1,1.1c0,4.7,0,9.5,0.1,14.2c0,0.8,0.1,1.7,0.1,2.5C159.6,283.1,149.5,283.3,139.3,283.3z"/>
			<path class="st27" d="M138.4,239.4c-0.1-5.7,0.1-11.3-0.7-16.9c10.8,0,21.5,0,32.4,0c0.4,5.6,0.9,11,1.3,16.6
				c-0.4,0-0.8,0.1-1.2,0.1c-5.4,0.1-10.8,0.2-16.2,0.2c-4.8,0-9.6,0-14.3,0C139.3,239.4,139,239.4,138.4,239.4z"/>
			<path class="st27" d="M138.6,242.1c3.8,0.2,7.6,0.3,11.4,0.5c0,3.1-0.1,6.2-0.1,9.3c0,3.1,0.2,6.2,0.3,9.5
				c-3.8-0.1-7.6-0.2-11.6-0.3C138.6,254.7,138.6,248.4,138.6,242.1z"/>
			<path class="st27" d="M213.2,223c4.7,0.1,9.4,0.1,14.1,0.2c0,5,0,9.9,0,14.9c-4.5,0.1-8.9,0.2-13.2,0.4
				C213.8,233.3,213.5,228.3,213.2,223z"/>
			<path class="st26" d="M216.5,264.5c3.4-0.3,6.9-0.5,10.5-0.8c0,6.4-0.1,12.7-0.3,19.2c-3.3-0.1-6.6-0.2-9.8-0.2
				C216.8,276.5,216.7,270.6,216.5,264.5z"/>
			<path class="st27" d="M139.7,307.6c-0.1-7.3-0.2-14.3-0.3-21.5c2.8,0.1,5.4,0.3,8.1,0.4c0.1,0.1,0.1,0.2,0.1,0.3
				c0.1,3.7,0.3,7.3,0.4,11c0.1,2,0.3,4,0.8,6c0.3,1.1,0.3,2.3,0.4,3.5C146.1,307.6,143,307.4,139.7,307.6z"/>
			<path class="st27" d="M227.6,331.7c-2.5,0.5-4.9,0-7.2,0.1c-0.1-0.1-0.1-0.2-0.2-0.3c-0.4-5.1-0.5-10.2-0.4-15.3
				c0-1.8-0.2-3.5-0.3-5.4c2.4-0.1,4.8-0.1,7.3-0.2C227,317.6,226.8,324.6,227.6,331.7z"/>
		</g>
		<g>
			<path class="st17" d="M132.1,201.9c-0.8-1.4-1.6-2.8-2.3-4.3c-2.7-5.7-4.3-11.6-4.3-17.9c-0.1-12.3,3.1-23.5,11-33.1
				c2.2-2.7,4.8-5,7.7-6.9c2.5-1.7,5.1-3.4,7.7-5.1c2-1.3,4-2.7,5.6-4.6c0.3-0.3,0.8-0.4,1.3-0.6c2.6-0.6,5.2-1.1,7.7-1.9
				c3.8-1.2,7.5-2.7,10.9-4.8c0.4-0.2,0.7-0.4,1.2-0.2c2.1,1,4.3,1,6.5,1.1c5.1,0.3,10.1,0.5,15.2,1.3c6.5,1.1,12.4,3.4,17.9,6.9
				c2.6,1.7,5.2,3.4,7.5,5.6c3.7,3.6,6.2,7.9,8,12.7c3,7.9,4.4,16.1,3.7,24.5c-0.5,5.8-2,11.4-4,16.9c-0.8,2.2-1.7,4.4-2.6,6.6
				c-0.7,1.5-1.5,2.9-2.3,4.4c-0.2,0-0.3,0.1-0.5,0.1c-4.6-0.1-9.2-0.2-13.9-0.3c-3.9-0.1-7.7-0.3-11.6-0.4
				c-4.3-0.2-8.6-0.4-12.8-0.6c-6.9-0.3-13.8-0.6-20.7-0.8c-6-0.1-11.9,0-17.9,0.1c-4.9,0.1-9.8,0.5-14.7,0.7
				C134.9,201.6,133.6,201.8,132.1,201.9z"/>
			<path class="st17" d="M174.4,116.9c-1.7,0.7-3.3,1.5-5,2.1c-3.7,1.5-7.5,2.8-11.5,3.5c-0.6,0.1-1,0-1.4-0.4
				c-2.8-2.8-6.2-4.2-10.2-4.3c-2.4,0-4.9,0-7.3-0.2c-3-0.3-5.9-1-8.6-2.3c-1.2-0.6-2.3-1.3-3.2-2.1c-1.5-1.3-1.3-2.8,0.5-3.8
				c1.4-0.8,3-0.9,4.5-0.9c1.3,0,2.6,0.1,3.9,0.1c3.6,0,6.7-1.2,9.3-3.8c1.1-1.1,2.2-2.3,3.3-3.4c1.6-1.7,3.3-3.3,5.3-4.6
				c0.7-0.4,1.4-0.8,2.1-1.1c1-0.4,2-0.3,2.8,0.4c0.7,0.5,1.5,1.1,2.2,1.7c1.6,1.3,3.4,2.3,5.5,2.6c3.4,0.4,6.4-0.4,8.7-3.1
				c0.9-1,1.6-2.1,2.5-3.1c1.2-1.4,2.4-2.9,3.8-4.2c1.6-1.6,3.6-2.7,5.8-3.3c3.8-1,7.7-1.9,11.6-2.8c0.1,0,0.3-0.1,0.4-0.1
				c1.5-0.2,2.3,0.7,1.6,2.1c-0.4,1-1.1,1.9-1.8,2.8c-1.7,1.9-3.7,3.5-5.9,4.9c-2.7,1.7-5.4,3.3-8,4.9c-5.5,3.3-8.9,8.2-10.5,14.4
				c-0.2,0.7-0.3,1.4-0.4,2.1C174.3,115.5,174.4,116.2,174.4,116.9z"/>
			<g>
				<path class="st14" d="M205.1,104.8c0.5-0.5,0.9-1.2,1.2-2.1c0.2-0.6,0.2-1.1,0-1.6c-0.2-0.4-0.7-0.7-1.4-0.9
					c-0.4-0.1-0.8-0.1-1.2-0.2c-2,0-4.1,0.4-6.7,1.5c-4.6,1.8-8.9,4.4-13.3,8.1c-1,0.8-1.9,1.7-2.8,2.5c-0.4,0.4-0.9,0.8-1.3,1.1
					l-0.4,0.3l0.8,0.9l1.1-0.8c3.5-2.8,7-5.2,10.5-7.1c1.4-0.7,2.9-1.3,4.1-1.7c0.5-0.2,1.2-0.2,1.9-0.2c0.4,0.1,0.7,0.3,0.9,0.5
					c0.2,0.3,0.1,0.7-0.1,1.1c-0.3,0.5-0.7,1-1.1,1.3c-0.9,0.8-2,1.5-3.2,2.4c-2.8,1.9-5.5,3.8-8.3,5.6l-4.3,2.9
					c-0.2,0.2-0.4,0.3-0.7,0.5l-1,0.8l0.9,0.3c0.1,0,0.2,0,0.3,0c0.2,0,0.4-0.1,0.5-0.1l8.8-4.6c3.4-1.8,7.4-3.9,10.8-6.7
					C202.6,107.5,203.9,106.1,205.1,104.8z"/>
				<path class="st14" d="M221.7,116.2c1.2-0.9,1.9-1.8,2.4-2.9c0.3-0.7,0.4-1.3,0.2-1.8c-0.2-0.5-0.6-0.8-1.3-1.1
					c-0.9-0.4-2-0.6-3-0.7c-2.5-0.2-4.9,0.2-7.1,0.7c-5.1,1.2-9.9,3-15.1,5.1c-0.1,0.1-0.2,0.1-0.4,0.2c-0.1,0.1-0.2,0.1-0.3,0.2
					l-1.9,1.2l2.7-0.4c0.2,0,0.4-0.1,0.6-0.1c1.1-0.2,2.1-0.5,3.2-0.7c2.4-0.5,4.8-1.1,7.2-1.6c2-0.4,3.6-0.5,5.1-0.2
					c1,0.2,1.5,0.5,1.6,1.1c0.1,0.4,0,0.9-1,1.5c-1.2,0.6-2.3,1.2-3.6,1.6c-1.8,0.5-3.6,1-5.4,1.5c-0.8,0.2-1.6,0.4-2.4,0.6
					c-0.2,0.1-0.5,0.1-0.7,0.2l-1.3,0.4l0.8,0.5c0.3,0.2,0.5,0.2,0.7,0.2c0.1,0,0.1,0,0.2,0c3.8-0.4,8.3-1,12.6-2.5
					C218.2,118.4,220.1,117.4,221.7,116.2z"/>
				<path class="st14" d="M215.3,121.8l-1.6-0.2l-0.2,1.1l0.9,0.3c1.5,0.5,3,1,4.6,1.4c3.4,1.1,6.9,2.2,10.3,3.3l0.5,0.2
					c5.6,1.9,11.5,3.8,17.6,4.3c1.6,0.1,3.2,0.2,4.8,0.4l2.9,0.2l0.1-0.9c0-0.2,0.1-0.4,0.1-0.6c0-1.3-0.3-1.6-1.5-1.8
					c-0.6-0.1-1.1-0.1-1.7-0.1c-0.4,0-0.7-0.1-1.1-0.1c-0.7-0.1-1.4-0.1-2.1-0.2c-1.6-0.1-3.2-0.2-4.7-0.4c-4.1-0.6-8-1.7-12-3
					l-1.2-0.4c-4.2-1.3-8.6-2.7-13.1-3.3C216.9,122,216.1,121.9,215.3,121.8z"/>
				<path class="st14" d="M260.1,142.4l0-0.4l-1.4-0.2c-0.8-0.1-1.5-0.2-2.3-0.3c-4.7-0.5-9-1.5-13.1-2.9
					c-6.4-2.2-12.5-5.2-18.2-8.1c-2.6-1.3-5.3-2.6-7.9-3.8c-1-0.4-1.9-0.9-2.9-1.3c-0.4-0.2-0.8-0.3-1.2-0.5
					c-0.2-0.1-0.4-0.1-0.5-0.2l-0.4-0.1l-0.5,1l0.8,0.4c0.3,0.2,0.6,0.3,0.8,0.5c0.7,0.4,1.4,0.8,2.1,1.2c1.6,0.9,3.2,1.8,4.7,2.8
					c2.1,1.4,4.4,2.6,6.6,3.6c2.5,1.1,5.2,2.3,8.8,3.7c4.1,1.7,8.4,3,12.6,4.2l2.3,0.7c2.6,0.8,5.2,1.4,7.7,2
					c0.2,0.1,0.5,0.1,0.8,0.1c0.3,0,0.6-0.1,0.9-0.3C260.2,144,260.2,143.2,260.1,142.4z"/>
				<path class="st14" d="M174.7,118.5c-6,3.2-11.2,5-16.3,5.7l-0.5,0.1l0.4,2.5l0.5-0.1c3.7-0.5,12.2-3.5,17.1-6.1l0.4-0.2l-1.3-2
					L174.7,118.5z"/>
			</g>
		</g>
	</g>
	<g>
		<path class="st18" d="M376.1,313.5c-1.6,0.2-3.2,0.4-4.7,0.6c-7.6,0.5-15.2,0.9-22.8,0.8c-6.5-0.1-13-0.1-19.5-0.1
			c-2.3,0-4.6,0-6.9,0.1c-0.9,0-1.9,0.2-3,0.3c-0.1-18.1,0.5-36.1,0.7-54.1c0.4-0.1,0.8-0.3,1.2-0.3c3.7-0.8,6.8-3.7,7.7-7.4
			c0.9-3.7,0.3-7.3-1.9-10.5c-1.5-2.2-3.5-3.4-6-4.2c-0.2-0.1-0.4-0.1-0.7-0.2c-0.1,0-0.1-0.1-0.3-0.2c0.1-7.2-0.2-14.5-0.8-21.9
			c0.8-0.1,1.6-0.2,2.3-0.3c5.8-0.5,11.6-1,17.5-1.6c10.4-1,20.8-1.7,31.2-1.9c1.6,0,3.2,0,4.8,0c1.4,0,1.6,0.2,1.9,1.5
			c0.3,1.4,0.7,2.8,0.7,4.3c0.1,4,0.3,8.1,0.2,12.1c-0.1,5.7-0.3,11.5-0.6,17.2c-0.2,4.7-0.5,9.3-0.6,14c-0.2,7-0.4,14.1-0.6,21.1
			c-0.1,5.2-0.3,10.4-0.3,15.6c0,4.5,0.2,9,0.3,13.5C376.1,312.5,376.1,312.9,376.1,313.5z M356.3,277.8c0-1.4-0.9-3.2-2.3-4.8
			c-1.1-1.1-2.4-1.8-4-1.8c-3.1-0.1-5.2,1.5-6.8,3.9c-0.7,1-1.1,2.2-1.5,3.3c-1.2,3.2-0.4,5.8,2.1,8c3.3,2.9,7.9,2.4,10.5-1.2
			C355.7,283.2,356.4,281,356.3,277.8z M342.6,230.2c0.4-0.1,1.2-0.3,1.9-0.6c3.3-1.6,4.9-6.5,3.3-9.8c-1.2-2.4-5-4.4-7.9-2.9
			c-1.5,0.8-2.7,1.8-3.6,3.2c-1.3,2.2-1.5,4.4-0.1,6.6C337.6,229,339.6,230.2,342.6,230.2z M369.1,304.4c-0.1-2.3-2-4.9-4.1-5.8
			c-2.6-1-5.9,0.5-6.7,3.1c-0.4,1.3-0.6,2.8-0.2,4.2c0.2,0.8,0.5,1.6,0.9,2.3c0.9,1.5,2.2,2.3,3.9,2.2c2.1-0.1,3.9-0.9,5.2-2.5
			C368.8,306.9,369.2,305.7,369.1,304.4z M326.9,305.5c3.3-0.1,6-2.8,5.9-5.8c-0.1-3.4-2.9-6.5-5.9-6.3c-3.6,0.3-6,2.9-6,6.7
			C321,303.2,323.8,305.6,326.9,305.5z M360.9,251.9c3.9-0.2,6.5-3.2,5.9-7.1c-0.1-0.7-0.3-1.3-0.6-2c-0.8-1.9-2.2-3.2-4.3-3.4
			c-2.2-0.2-4,0.7-5.2,2.6c-0.6,1-1.1,2.1-1.4,3.2C354.4,248.7,357.2,252.2,360.9,251.9z M368.8,225.8c2,0,3.8-1.5,4.1-3.2
			c0.3-1.5-0.3-2.8-1.4-3.8c-1-0.9-2-1-3.2-0.4c-0.2,0.1-0.4,0.1-0.7,0.2c-2.4,0.9-3.3,4.1-1.7,5.8
			C366.8,225.4,367.8,225.8,368.8,225.8z"/>
		<path class="st17" d="M368.6,210.1c-5.5,0.2-10.9,0.4-16.5,0.7c-0.4-5.9-0.6-6,0.7-7.4C369.5,186.2,368.2,200.7,368.6,210.1z"/>
		<path class="st17" d="M343.6,211.7c-5.4,0.5-10.7,0.9-16,1.4c-0.1-0.2-0.2-0.2-0.2-0.3c0.1-27.6,9.1-11.2,14.3-5.2
			C343,209,343.6,209.9,343.6,211.7z"/>
		<path class="st17" d="M335.5,187.6c3.7,1.1,3.6,0.8,9.2-6.1c0.1,0,0.2,0.1,0.3,0.1c0.1,7.6,0.3,15.3,0.4,23.1
			c-0.5,0.3-1.2,0.7-2.1,1.1C341.4,202.7,335.5,188.1,335.5,187.6z"/>
		<path class="st17" d="M356.3,182.5c2.7,3.3,3.7,2.3,11.2-0.8c-0.5,0.9-9.9,16.5-18.1,22.2C351.7,196.8,354,189.7,356.3,182.5z"/>
		<path class="st17" d="M320,258.2c0-5.8,0-11.4,0.1-17.1c0.6,0.3,1,0.5,1.5,0.8c4.5,2.6,5.3,8.1,3.7,11.8
			C324.2,255.9,322.3,257,320,258.2z"/>
		<path class="st17" d="M349.6,205.4c0.3,2,0.6,3.7,0.9,5.6c-2,0.1-3.9,0.3-5.8,0.4C343.1,207.8,347.4,204.9,349.6,205.4z"/>
		<path d="M353.8,278.7c0-1.2-0.5-2.3-1.2-3.3c-1.1-1.5-2.3-1.9-4.1-1.4c-3.6,1-4.9,4.2-4.9,6.9c0,0.6,0.2,1.4,0.6,1.9
			c0.5,0.8,1.2,1.5,1.9,2.1c2,1.5,4.4,1.2,5.9-0.9C353.2,282.5,353.8,280.7,353.8,278.7z"/>
		<path d="M345.7,223c-0.1-1.6-0.6-2.6-1.8-3.2c-1.8-0.9-3.6-0.4-4.6,1.3c-1.7,2.7-0.2,5,1.6,5.9c0.8,0.4,1.7,0.5,2.5-0.1
			C344.8,225.9,345.6,224.5,345.7,223z"/>
		<path class="st17" d="M353.8,278.7c0,2-0.6,3.8-1.7,5.3c-1.5,2-3.9,2.4-5.9,0.9c-0.7-0.6-1.4-1.3-1.9-2.1
			c-0.4-0.5-0.6-1.3-0.6-1.9c0.1-2.7,1.3-5.9,4.9-6.9c1.8-0.5,3-0.1,4.1,1.4C353.3,276.4,353.7,277.5,353.8,278.7z"/>
		<path class="st17" d="M345.7,223c-0.1,1.5-0.9,2.9-2.3,3.9c-0.8,0.5-1.7,0.5-2.5,0.1c-1.9-0.9-3.3-3.2-1.6-5.9
			c1.1-1.7,2.9-2.2,4.6-1.3C345,220.4,345.6,221.4,345.7,223z"/>
		<path class="st17" d="M360.6,303.8c0-0.9,0.3-1.5,0.8-2.2c0.7-0.9,1.7-1.1,2.6-0.6c1.3,0.7,2,1.8,2,3.3c0,1.5-1.7,3.1-3.3,3
			c-0.6,0-1.1-0.4-1.3-0.9C361.1,305.6,360.9,304.7,360.6,303.8z"/>
		<path class="st17" d="M323.8,299.7c0-2.4,0.9-3.3,2.5-3.8c0.8-0.3,1.5-0.1,2.1,0.4c0.9,0.7,1.4,1.6,1.5,2.7c0.1,0.4,0,0.8-0.1,1.1
			c-0.6,2.2-3.8,3-5.4,1.4C324,301.1,323.8,300.4,323.8,299.7z"/>
		<path class="st17" d="M364.2,245.5c0,2.2-1.8,3.9-4,3.6c-1.3-0.2-2.3-1.4-2.3-2.9c0-1,0.3-2,0.8-2.8c1.3-2,3.8-1.9,4.9,0.2
			C363.8,244.2,364,244.9,364.2,245.5z"/>
		<path class="st17" d="M370.3,221.6c-0.1,0.8-0.3,1.3-0.9,1.7c-0.5,0.3-1,0.2-1.5-0.2c-0.7-0.5-0.7-1.1-0.1-1.7
			c0.2-0.2,0.4-0.4,0.6-0.5c0.3-0.2,0.8-0.5,1-0.3C369.9,220.8,370.1,221.3,370.3,221.6z"/>
	</g>
	<g>
		<path class="st13" d="M284.4,252.3c5,0,10,0,15.1,0c0,8.5,0,17.1,0,25.8c-5-0.2-9.9,0.3-15,0.8C284.5,270,284.4,261.2,284.4,252.3
			z"/>
		<path class="st13" d="M273.3,314c-0.2,0-0.5,0-0.9,0c-3.2-0.1-6.5-0.2-9.7-0.4c-1.4-0.1-2.8-0.3-4.2-0.5c-0.9-0.1-1-0.2-1-1.2
			c0-2.4,0-4.7,0.1-7.1c0.1-4.1,0.3-8.2,0.4-12.4c0-1.1,0.1-2.1,0.2-3.3c5,0.4,9.9-0.4,14.9-0.5C273.1,297.2,273.2,305.5,273.3,314z
			"/>
		<path class="st13" d="M284.7,290.2c5-0.4,9.9-0.7,14.9-1.1c0,0.3,0.1,0.6,0.1,0.9c0.2,6.8,0.5,13.6,0.7,20.4c0,1.4,0,2.7,0,4.1
			c-0.9,0.3-12.6,0.1-14.9-0.2C285,306.3,284.8,298.3,284.7,290.2z"/>
		<path class="st13" d="M273,278.8c-4.8,0.1-9.6,0.2-14.4,0.3c0.2-8.9,1-17.6,0.4-26.3c1.2-0.3,11.8-0.8,13.3-0.5
			c0,1.5,0,2.9,0.1,4.4c0.2,5,0.4,10,0.6,15C273.1,274,273,276.3,273,278.8z"/>
		<path class="st17" d="M275.9,252.2c2,0,3.9,0,5.8,0c0,0.7-0.1,1.3-0.1,1.9c0,7.3,0,14.7,0,22c0,3.9,0,7.8-0.1,11.7
			c0,6.6-0.1,13.2,0,19.8c0,1.9,0.2,3.7,0.4,5.6c0,0.3,0,0.6,0,0.9c-1.4,0-2.8,0-4.2,0c-0.1-0.2-0.1-0.3-0.1-0.4
			c-0.1-4.6-0.3-9.2-0.4-13.9c-0.1-3.2-0.2-6.5-0.3-9.7c-0.2-4-0.4-7.9-0.6-11.9c0-0.8,0-1.6,0-2.4c-0.1-7.3-0.2-14.5-0.3-21.8
			C276,253.5,275.9,252.9,275.9,252.2z"/>
		<path class="st17" d="M284.7,281.6c5-0.2,9.9-0.5,14.9-0.7c0,1.6,0,3.2,0,4.9c-4.9,0.5-9.8,0.9-14.9,1.4
			C284.7,285.4,284.7,283.5,284.7,281.6z"/>
		<path class="st17" d="M273,281.7c0,1.4,0,2.7,0,4.2c-4.9,0.3-9.8,0.7-14.8,1c0.1-1.8,0.1-3.5,0.2-5.2
			C263.3,281.7,268.1,281.7,273,281.7z"/>
		<path class="st17" d="M299.7,250c-5.5,0-11,0-16.5,0c-0.2-5.9-0.4-6,1-7.3C301.6,226.1,299.6,240.5,299.7,250z"/>
		<path class="st17" d="M274.6,250.5c-5.4,0.2-10.7,0.5-16,0.7c-0.1-0.2-0.2-0.3-0.2-0.3c1.3-27.6,9.6-10.8,14.5-4.6
			C274.1,247.8,274.7,248.7,274.6,250.5z"/>
		<path class="st17" d="M267.5,226.1c3.7,1.3,3.6,0.9,9.5-5.7c0.1,0,0.2,0.1,0.3,0.1c-0.2,7.6-0.4,15.3-0.6,23.1
			c-0.5,0.3-1.3,0.6-2.1,1C272.9,241.4,267.5,226.6,267.5,226.1z"/>
		<path class="st17" d="M288.5,221.8c2.6,3.4,3.6,2.4,11.2-0.3c-0.5,0.9-10.5,16.1-19,21.5C283.3,235.9,285.9,228.9,288.5,221.8z"/>
		<path class="st17" d="M280.9,244.4c0.2,2,0.4,3.7,0.7,5.7c-2,0.1-3.9,0.1-5.9,0.2C274.3,246.6,278.7,243.9,280.9,244.4z"/>
	</g>
</g>
</svg>
