<?xml version="1.0" encoding="utf-8"?>
<!-- Generator: Adobe Illustrator 22.0.0, SVG Export Plug-In . SVG Version: 6.00 Build 0)  -->
<svg version="1.1" id="Calque_1" xmlns="http://www.w3.org/2000/svg" xmlns:xlink="http://www.w3.org/1999/xlink" x="0px" y="0px"
	 viewBox="0 0 432 432" style="enable-background:new 0 0 432 432;" xml:space="preserve">
<style type="text/css">
	.st0{fill:#754C24;}
	.st1{fill:#E6E6E6;}
	.st2{fill:#4D4D4D;}
	.st3{fill:#808080;}
	.st4{fill:#006837;}
	.st5{fill:#C1272D;}
	.st6{fill:#CCCCCC;}
	.st7{fill:#EAC675;}
	.st8{fill:#FBB03B;}
	.st9{fill:#FFFFFF;}
	.st10{fill:#8C6239;}
	.st11{fill:#A67C52;}
	.st12{fill:#A81621;}
	.st13{fill:#D6A14D;}
	.st14{fill:#C69C6D;}
	.st15{fill:#84D1A6;}
	.st16{fill:#8FAADB;}
	.st17{fill:#E0A6C2;}
	.st18{fill:#603813;}
	.st19{fill:#ED1C24;}
	.st20{fill:#4D9370;}
	.st21{fill:#7CC6E0;}
	.st22{fill:#2F7DA8;}
	.st23{fill:#F15A24;}
	.st24{fill:#009245;}
	.st25{fill:#662D91;}
	.st26{fill:#679CBA;}
	.st27{fill:#C77F2C;}
	.st28{fill:#831925;}
	.st29{fill:#E6E5E5;}
	.st30{fill:#AE5860;}
	.st31{fill:#C6B198;}
	.st32{fill:none;stroke:#000000;stroke-width:2;stroke-miterlimit:10;}
	.st33{fill:#AA3642;}
	.st34{fill:#901C25;}
	.st35{fill:#F1F1F1;}
	.st36{fill:#E42528;}
	.st37{fill:#736358;}
	.st38{fill:#F29222;}
	.st39{fill:#754D24;}
	.st40{fill:#094D84;}
	.st41{fill:#1660A7;}
	.st42{fill:#C59B6C;}
	.st43{fill:#A1272D;}
	.st44{fill:#036838;}
</style>
<g>
	<g>
		<path class="st18" d="M162.7,341.3c-0.7,2.3-0.9,4.5-0.5,6.8c0.4,2.1,1.9,3.2,4.1,3c1.6-0.1,3-0.7,4.3-1.5
			c2.3-1.5,4.2-3.4,5.7-5.7c0.9-1.3,1.8-2.7,2.7-4c0.4-0.5,0.8-1,1.2-1.4c0.2-0.2,0.6-0.2,0.8-0.1c0.2,0.2,0.4,0.5,0.4,0.8
			c0,0.4-0.2,0.8-0.4,1.1c-1.8,3-3.5,6.1-6,8.6c-2,2.1-4.4,3.8-7,4.9c-1.2,0.5-2.5,0.8-3.8,1c-3.2,0.3-5.4-1.2-6.7-4.1
			c-0.2-0.4-0.3-0.7-0.6-1.2c-0.4,0.5-0.7,0.9-1,1.2c-1.1,1-2.1,2.2-3.3,2.9c-2.2,1.3-4.6,0.7-6.1-1.4c-0.6-0.9-1-1.9-1.4-2.9
			c-0.2-0.5-0.3-1.1-0.4-1.8c-0.5,0.4-1,0.8-1.4,1.1c-3.3,2.7-7,3.5-11.2,2.8c-1.3-0.2-2.6-0.3-4.1-0.5c-0.1,1.8-0.3,3.5-0.3,5.2
			c-0.1,2.4-0.1,4.8-0.1,7.2c0,0.6-0.1,1.2-0.3,1.7c-0.5,1.3-2.1,1.5-2.9,0.4c-0.3-0.4-0.5-0.9-0.6-1.4c-0.7-2.6-0.9-5.2-0.8-7.9
			c0.1-3,0.3-6,0.5-9c0-0.4,0.1-0.9,0.1-1.4c-1.5-0.1-2.9-0.2-4.5-0.3c-0.2,0.2-0.4,0.6-0.7,1c-0.7,1.1-1.3,2.2-2.1,3.2
			c-1.8,2.4-4.2,3.9-7.2,4.3c-3.6,0.6-6.5-1.1-7.7-4.5c-0.1-0.2-0.2-0.4-0.3-0.9c-0.7,0.6-1.3,1.1-1.8,1.6c-2,1.7-4.2,3.3-6.8,3.9
			c-4,0.9-6.9-0.8-8.1-4.8c-0.1-0.3-0.2-0.7-0.3-1.2c-5.7,3.7-11.9,5.1-18.7,3.8c-0.2,1.2-0.4,2.2-0.5,3.3c-0.3,2.9-0.5,5.8-0.7,8.8
			c0,0.5,0,1-0.1,1.5c-0.2,1-0.9,1.6-1.9,1.7c-1,0-1.8-0.5-2.1-1.5c-0.2-1.1-0.4-2.3-0.5-3.4c-0.2-4.2,0.6-8.4,1.5-12.5
			c1.2-5.4,2.8-10.7,4.8-15.8c0.4-1.1,1-2.2,1.6-3.3c0.3-0.5,0.7-1.1,1.2-1.5c0.4-0.3,1-0.5,1.4-0.3c0.3,0.1,0.6,0.8,0.7,1.2
			c0.1,0.5-0.1,1-0.2,1.5c-0.1,0.6-0.2,1.1-0.5,2c0.7-0.6,1.1-0.9,1.6-1.2c1.8-1.4,3.8-2.7,6.1-3.1c3.4-0.6,6,1.4,6,4.8
			c0,4.2-1.6,7.9-4.2,11.1c-1,1.3-2.2,2.4-3.4,3.7c0.5-0.1,1-0.2,1.3-0.3c1.3-0.6,2.6-1.2,3.9-1.9c1.9-0.9,2.9-2.2,3.5-4.3
			c1-4.1,3.2-7.8,6.1-10.8c1.4-1.4,2.9-2.6,4.9-3c2.9-0.6,5.3,1.3,5.2,4.3c-0.1,4.2-3.5,8.4-7.9,9.6c-1,0.3-2,0.4-3.1,0.7
			c-0.5,1.6-0.6,3.2-0.1,4.8c0.5,1.9,1.9,2.9,3.8,2.2c1.7-0.6,3.3-1.6,4.9-2.4c0.5-0.3,0.9-0.7,1.3-1.1c0.9-0.6,1.3-1.5,1.6-2.5
			c1.6-5.5,4.6-10.1,9.2-13.6c1.6-1.2,3.4-2,5.5-2.3c2.5-0.3,4.6,0.8,5.4,3.2c0.7,2,0.7,4.1,0.2,6.1c-0.3,1.4-0.8,2.7-1.3,4.1
			c-0.1,0.4-0.2,0.7-0.4,1.3c0.9,0,1.6,0.1,2.3,0.1c1.4-0.1,1.6-0.4,1.9-1.7c0.7-2.6,1.4-5.2,2.2-7.8c0.4-1.1,1-2.2,1.5-3.3
			c0.2-0.4,0.5-0.8,0.8-1.1c0.4-0.3,1-0.5,1.4-0.3c0.3,0.2,0.7,0.8,0.6,1.2c-0.2,1.5-0.5,3.1-0.7,4.6c-0.1,0.5-0.2,1.1,0,1.7
			c0.4-0.5,0.7-1,1.1-1.5c1.3-1.4,2.5-2.9,3.9-4.1c1.2-1.1,2.7-1.7,4.4-1.9c2.8-0.3,4.5,0.8,5.3,3.5c0.5,2,0.3,3.9-0.2,5.8
			c-0.7,3.3-1.9,5.5-4.9,9.4c2-1.1,3.4-2.3,4.7-3.6c0.2-0.2,0.3-0.7,0.4-1.1c0.8-8.3,3.2-16.3,4.8-24.5c0.6-2.8,1.7-5.4,3.4-7.7
			c0.6-0.8,1.2-1.5,2-2.1c1.9-1.4,3.9-0.9,4.8,1.3c0.8,2,1,4.1,0.6,6.1c-1.1,6-3.6,11.4-7.8,15.9c-0.4,0.4-0.7,1-0.8,1.6
			c-0.6,4.2-1.1,8.4-1.5,12.7c-0.1,1.3-0.1,2.6,0.9,3.9c2.5-1.7,5-3.3,5.5-6.7c0.6-4.3,2.6-8,5.2-11.3c1.3-1.7,3-2.8,5.1-3.3
			c0.9-0.2,1.9-0.3,2.9-0.2c2.6,0.3,4,2.2,3.9,4.8c-0.2,4.7-5.1,8.6-9.9,7.9C163.6,341.5,163.2,341.4,162.7,341.3z M66,348.5
			c0.9,0.9,1.8,0.8,2.8,0.5c5.8-1.5,11.2-7.8,11.7-13.8c0.2-2.7-1-3.7-3.5-2.9c-1,0.3-2,0.7-2.8,1.3c-1.4,1-2.8,2.2-4.1,3.4
			c-1.3,1.1-2.1,2.5-2.4,4.3c-0.3,1.5-0.8,3-1.2,4.5C66.4,346.6,66.2,347.6,66,348.5z M128.3,348.1c0.2,0.1,0.3,0.2,0.4,0.2
			c0.2,0,0.5,0.1,0.7,0.1c3.2-0.3,6.1-1.4,8.2-3.8c2.6-3,3.7-6.7,3.8-10.6c0-1.9-0.7-2.4-2.5-1.9c-1.1,0.3-2.1,0.9-3,1.5
			c-0.8,0.6-1.6,1.4-2.2,2.2c-1.5,2.1-2.9,4.3-4.3,6.4C128.2,344,128.2,346.1,128.3,348.1z M113.2,333.6c-0.6,0.4-0.8,0.6-1,0.8
			c-2.8,3.1-4.9,6.6-6.1,10.7c-0.2,0.8-0.3,1.6-0.4,2.4c-0.1,2.2,1.2,3.4,3.4,2.9c1-0.2,2.1-0.6,3-1.2c1.9-1.2,3.3-3,4.4-5.1
			C113.8,341.3,112.6,337.9,113.2,333.6z M163.4,339.1c4,1,7.8-1.8,8-5.6c0.1-1.6-1-2.5-2.5-2.1c-1.3,0.3-2.2,1.1-3,2.2
			C164.7,335.2,164,337.1,163.4,339.1z M90.6,340.5c4.3-0.2,7.2-2.5,7.7-6.2c0.1-1,0.5-2.2-0.7-2.8c-1.2-0.6-2.1,0.2-2.9,1
			C92.5,334.7,91.4,337.4,90.6,340.5z M117.7,341.8c1.1-2.2,1.6-4.3,1.4-6.6c-0.1-1-0.4-2-0.9-2.9c-0.2-0.4-0.9-0.7-1.4-0.7
			c-0.3,0-0.8,0.5-1,1c-0.6,1.4-0.8,3-0.6,4.5C115.5,338.8,116.3,340.4,117.7,341.8z M157.7,311.8c-1.6,2.1-4.5,12.7-4.4,16.2
			c0.2-0.2,0.4-0.4,0.5-0.6c1.9-3.2,3.3-6.6,4.1-10.2C158.3,315.5,158.5,313.8,157.7,311.8z"/>
		<path class="st11" d="M128.4,285.5c-0.4,0.3-0.8,0.6-1.1,1c-0.8,0.9-1.6,1.9-2.4,2.9c-3,4.3-5.5,8.9-7.4,13.8
			c-0.3,0.7-0.7,1.2-1.5,1.2c-0.8,0-1.3-0.4-1.5-1.1c-0.3-0.7-0.4-1.4-0.7-2.4c-0.5,0.4-0.8,0.8-1.2,1.1c-0.7,0.6-1.3,1.3-2,1.9
			c-2.8,2.1-5.9,0.8-6.6-2.6c-0.1-0.5-0.1-0.9-0.2-1.7c-0.5,0.5-0.9,0.8-1.2,1.2c-0.8,0.8-1.6,1.6-2.5,2.4c-0.4,0.4-0.9,0.7-1.4,1
			c-2.5,1.3-4.3,0.7-5.7-1.8c-0.1-0.2-0.2-0.3-0.4-0.6c-0.3,0.4-0.6,0.7-0.9,1c-0.6,0.6-1.2,1.3-1.9,1.8c-1.4,1.1-3.1,0.7-3.9-0.8
			c-0.5-0.9-0.7-1.9-0.8-2.9c-0.3-3.3,0.3-6.4,1.3-9.5c0.3-1.1,0.7-2.2,1.1-3.3c0.1-0.4,0.2-0.9,0.3-1.3c-0.1-0.1-0.2-0.1-0.3-0.2
			c-0.3,0.4-0.7,0.7-1,1.1c-0.8,1.2-1.6,2.4-2.2,3.7c-1.8,3.5-3.5,6.9-5.3,10.4c-0.3,0.6-0.6,1.3-1,1.9c-1,1.4-2.6,1.4-3.5-0.1
			c-0.4-0.6-0.5-1.3-0.6-2c-0.1-0.2-0.1-0.4-0.1-0.9c-0.4,0.4-0.6,0.6-0.8,0.8c-0.9,0.9-1.7,1.9-2.7,2.5c-2.5,1.6-5.1,0.7-6.1-2.2
			c-0.7-2.1-0.7-4.2-0.5-6.4c0.6-4.5,2-8.8,3.5-13.1c0.3-1,0.7-1.9,1.1-3c-1.7-0.5-3.4-0.7-5.1-0.4c-0.7,0.1-1.4,0.5-2.1,0.6
			c-0.3,0.1-0.9-0.1-1-0.3c-0.1-0.2,0-0.8,0.2-1c1.1-1,2.6-1.6,4.1-1.6c1.5,0,3.1,0.2,4.7,0.3c0.4-0.8,0.8-1.7,1.3-2.6
			c0.3-0.6,0.7-1.2,1.1-1.7c0.5-0.6,1.3-0.7,1.8-0.4c0.6,0.4,0.8,1,0.6,1.6c-0.3,1.1-0.7,2.2-1.1,3.3c-0.1,0.3-0.2,0.5-0.2,0.8
			c1.5,0.8,4.3,1.4,6.1,1.3c0.5-1.1,1-2.3,1.5-3.4c0.4-0.9,0.9-1.7,1.4-2.5c0.2-0.4,0.5-0.7,0.9-1c0.4-0.3,0.8-0.7,1.3-0.4
			c0.3,0.2,0.5,0.7,0.4,1.1c-0.1,1-0.2,1.9-0.5,2.8c-1,3.5-2.2,7-3.1,10.5c-1,3.7-1.8,7.4-2.6,11.1c-0.1,0.2,0,0.5-0.1,1.1
			c0.4-0.6,0.6-0.9,0.7-1.2c1.4-2.6,2.7-5.3,4.2-7.9c0.9-1.5,1.9-2.9,3-4.2c0.5-0.6,1.1-1.1,1.8-1.4c1.3-0.7,2.5-0.3,2.9,1.1
			c0.3,0.9,0.5,2,0.4,3c-0.3,3.4-0.7,6.8-1.1,10.2c-0.1,0.8-0.1,1.6-0.2,2.5c1.5-0.7,2.9-2.4,3.3-3.8c1.1-4.3,3.1-8.2,6.4-11.3
			c1-1,2.3-1.8,3.5-2.4c2.8-1.3,5.4-0.5,7.2,1.9c0.1,0,0.2,0.1,0.3,0c0.6-0.2,1.2-0.5,1.8,0c0.6,0.5,0.5,1.2,0.3,1.9
			c-0.7,1.9-1.4,3.8-2.3,5.6c-1.1,2.3-2,4.6-2.3,7.1c-0.1,0.8-0.2,1.7,0.5,2.1c0.7,0.4,1.3-0.2,1.9-0.6c0.1-0.1,0.2-0.2,0.3-0.3
			c1-0.8,2.3-1.5,2.9-2.6c0.6-1,0.4-2.4,0.5-3.6c0.4-3.8,1.6-7.4,3.6-10.7c0.3-0.4,0.6-0.9,1-1.2c0.3-0.2,1-0.3,1.3-0.1
			c0.3,0.2,0.6,0.8,0.6,1.2c-0.1,0.8-0.4,1.6-0.6,2.4c-0.6,2.1-1.2,4.3-1.7,6.4c-0.3,1.2-0.3,2.5-0.5,3.8c0.1,0,0.2,0.1,0.3,0.1
			c0.3-0.4,0.5-0.9,0.8-1.3c1.6-2.7,3.3-5.4,4.9-8.1c0.4-0.6,0.8-1.2,1.3-1.7c0.7-0.7,1.4-1.4,2.2-1.9c2.3-1.5,4.3-0.5,4.4,2.2
			c0.1,1.5-0.1,3.1-0.4,4.6c-0.6,2.9-1.3,5.7-2,8.6c-0.2,0.7-0.2,1.4-0.4,2.1c0.1,0,0.2,0.1,0.3,0.1c0.4-0.5,0.8-0.9,1.2-1.4
			c1.4-1.8,2.8-3.6,4.2-5.4c0.3-0.4,0.6-0.8,1-1c0.2-0.1,0.7-0.2,0.9,0c0.2,0.2,0.4,0.7,0.3,1c0,0.3-0.3,0.6-0.4,0.9
			c-1.5,2.2-2.9,4.4-4.5,6.6c-0.7,0.9-1.4,1.8-2.3,2.6c-1.8,1.6-4.1,0.9-4.7-1.4c-0.3-1.2-0.4-2.5-0.2-3.7c0.4-2.3,1-4.6,1.6-6.9
			c0.5-1.7,1.3-3.4,1.9-5.1c0.2-0.6,0.4-1.2,0.6-1.7C128.6,285.6,128.5,285.5,128.4,285.5z M71.7,280.6c-1.6,5-3.4,9.8-4.2,15
			c-0.3,1.8-0.5,3.5,0,5.3c0.4,1.4,0.9,1.6,2.1,0.9c1.9-1.1,3-2.9,4.3-4.6c0.1-0.2,0.2-0.4,0.2-0.7c1.2-4.5,2.3-8.9,3.5-13.4
			c0.1-0.4,0.2-0.8,0.3-1.1C75.8,281.5,73.8,281.1,71.7,280.6z M96.1,300.6c0,1.6,0.4,2,1.5,1.6c0.5-0.1,1-0.4,1.4-0.7
			c1.2-1.1,2.4-2.2,3.6-3.3c1.1-1,2-2,2.3-3.5c0.1-0.7,0.5-1.4,0.9-2.1c0.8-1.5,1.6-2.9,2.5-4.4c0.4-0.6,0.4-1,0-1.6
			c-0.9-1.6-2.8-2.1-4.3-1c-0.9,0.6-1.7,1.5-2.3,2.4c-2.2,2.9-3.7,6.2-4.8,9.6C96.6,298.8,96.3,299.9,96.1,300.6z"/>
		<path class="st11" d="M100.2,176.8c1.7-0.5,3.1-0.9,4.5-1.3c1.8-0.5,3.6-1.2,5.4-1.6c2.7-0.7,4.6,0.6,4.7,3.4
			c0.1,2.3-0.2,4.7-0.6,7c-0.5,3.2-1.4,6.3-2.1,9.5c-0.2,0.8-0.3,1.6-0.1,2.7c0.7-0.7,1.4-1.4,2.1-2.1c2.5-2.4,4.3-5,5.1-8.5
			c0.8-3.8,2.9-7.2,5.6-10.1c1.6-1.8,3.6-3,6-3.6c4.6-1,8.7,2.8,7.9,7.5c-1,5.9-6.4,9.7-12.3,8.6c-0.3-0.1-0.5-0.1-1.1-0.1
			c-0.5,2.5-0.9,5,0,7.5c1.1,2.8,3.5,3.9,6.4,2.9c2.5-0.9,4.6-2.4,6.5-4.4c2.3-2.4,4-5.3,5.4-8.3c0.3-0.7,0.7-1.4,1.2-1.9
			c0.3-0.3,1-0.4,1.5-0.3c0.3,0.1,0.6,0.7,0.6,1.1c0.1,0.5-0.1,1-0.2,1.4c-1.1,3.9-2.9,7.5-6,10.3c-2.2,2-4.5,3.9-7,5.4
			c-5.9,3.6-12.2,1.5-14.9-4.9c-0.2-0.4-0.4-0.8-0.7-1.5c-1,1.3-1.7,2.4-2.6,3.5c-0.9,1-1.8,2.1-3,2.9c-2.2,1.5-4.8,0.9-6-1.5
			c-0.7-1.2-1.1-2.7-1.2-4.1c-0.3-5,0.7-9.9,2.2-14.7c0.4-1.2,0.8-2.3,1.3-3.9c-0.8,0.2-1.4,0.4-1.9,0.6c-2.2,0.7-4.5,1.4-6.7,2
			c-0.7,0.2-1,0.6-1.2,1.2c-0.9,2.6-1.8,5.2-2.9,7.8c-1.3,2.8-2.6,5.7-4.2,8.3c-1.1,1.8-2.5,3.6-4.1,4.9c-3.6,3-8,1.5-9.2-3.1
			c-0.4-1.4-0.3-3-0.5-4.7c-0.6,0.6-1.2,1.2-1.8,1.8c-1.5,1.3-2.9,2.7-4.6,3.9c-2.9,2-6.1,1.3-8.1-1.6c-1.6-2.4-1.6-5.1-1.1-7.8
			c0.7-4,2.3-7.7,4.7-11c2.9-3.9,6.7-6.4,11.6-7c3.5-0.4,6.4,0.7,8.5,3.6c0.3,0.4,0.6,1,1,1.3c1.4,1,1.4,2.3,1,3.7
			c-0.4,1.3-0.9,2.5-1.5,3.7c-1.6,3.3-2.4,6.8-3.2,10.3c-0.2,1.1-0.2,2.3-0.3,3.8c0.7-0.3,1.2-0.3,1.5-0.6c0.7-0.6,1.5-1.3,2.1-2
			c2.7-3.1,7.2-12.3,8.1-16.6c-0.6-0.4-1.3-0.7-1.9-1.1c-3-2-3.5-6.2-1.1-8.9c1.8-2,4.3-2,5.8,0.2c0.7,0.9,1,2.1,1.2,3.2
			C100.4,174.5,100.2,175.5,100.2,176.8z M69.1,197.5c1.4-0.5,2.6-1.3,3.6-2.3c3.6-3.8,7.9-7,10-12c0.4-0.8,0.9-1.5,1.4-2.3
			c0.3-0.5,0.6-1.1,0.8-1.5c-1.7-2.4-3.2-2.9-5.7-2.3c-2.6,0.6-4.6,2.2-6.2,4.3c-2.8,3.6-4.4,7.6-5,12.1
			C67.8,194.8,67.9,196.2,69.1,197.5z M125.8,185.5c2.1,0.7,4,0.5,5.9-0.3c2.5-1,3.7-3,3.9-5.7c0.1-1.4-0.3-2.6-1.6-3.3
			c-1.4-0.7-2.6-0.3-3.6,0.6C127.6,179.1,126.5,182.2,125.8,185.5z M95.9,172.1c-1.1,2.2-0.8,3.1,1,3.9
			C97,174.6,97.4,173.2,95.9,172.1z"/>
		<g>
			<path class="st11" d="M138.9,237.5c-1.8,0.5-3.6,1-5.4,1.6c-0.5,1.2-1,2.6-1.6,3.9c-1.7,3.7-3.9,7-7.2,9.4
				c-1.9,1.4-4,2.5-6.5,2.3c-2.7-0.2-4.8-1.3-6.1-3.7c-0.1-0.2-0.2-0.4-0.4-0.7c-0.5,0.6-1,1.2-1.6,1.8c-0.8,0.7-1.5,1.5-2.4,2
				c-1.7,1.1-3.5,0.6-4.6-1.1c-0.4-0.6-0.6-1.2-0.9-1.9c-0.8,0.7-1.4,1.5-2.2,2.1c-0.6,0.6-1.3,1.1-2.1,1.5c-2.2,1.2-4.2,0.3-5-2.1
				c-0.2-0.5-0.3-1.1-0.4-1.7c-0.8,0.7-1.4,1.3-2.1,1.9c-1.2,1-2.6,1.6-4.2,1.9c-2.5,0.4-4.5-0.6-6.1-2.5c-1.2-1.4-1.7-3.1-1.7-5
				c0-4.6,1.6-8.6,5-11.7c0.9-0.8,2.1-1.4,3.2-1.9c1.8-0.7,3.5-0.3,4.7,1.1c1.2,1.4,1.1,3.1,0.4,4.7c-1.4,3.2-4.8,4.8-8.2,4
				c-0.1,0-0.2,0-0.5,0c-0.5,2.3-0.7,4.7,0.5,6.9c0.5,1,1.5,1.5,2.5,1.3c0.9-0.1,1.8-0.4,2.6-0.8c1.6-0.9,2.9-2.3,4.1-3.8
				c0.2-0.3,0.4-0.7,0.4-1c1.4-5.6,2.8-11.3,4.2-16.9c0-0.1,0-0.3,0.1-0.6c-1.7-0.2-3.3-0.1-4.9,0.4c-0.7,0.2-1.5,0.5-2.2,0.8
				c-0.5,0.2-1.1,0.5-1.4-0.1c-0.4-0.7,0.2-1,0.7-1.3c1.6-1,3.3-1.5,5.2-1.8c1.1-0.2,2.2-0.2,3.4-0.4c0.3-0.8,0.6-1.6,0.9-2.4
				c0.2-0.5,0.4-1,0.7-1.4c0.3-0.5,0.8-0.9,1.5-0.7c0.7,0.2,1,0.7,1,1.4c0,0.7-0.2,1.3-0.3,2c-0.1,0.4-0.1,0.7-0.2,1.3
				c1.7,0.2,3.3,0.4,5,0.7c0.4-0.9,0.8-1.8,1.2-2.7c0.3-0.7,0.7-1.4,1.2-2c0.3-0.5,0.9-0.7,1.4-0.4c0.3,0.2,0.6,0.8,0.6,1.2
				c0,0.8-0.2,1.6-0.3,2.4c-0.1,0.6-0.2,1.1-0.4,1.9c0.9-0.1,1.7,0,2.5-0.2c1.5-0.4,3.1-0.8,4.6-1.3c0.6-0.2,1.1-0.4,1.6,0.2
				c0.3,0.4,0.2,1.2-0.4,1.7c-0.6,0.4-1.2,0.8-1.9,1c-2.2,0.5-4.5,0.9-7,1.4c-0.4,1.9-0.9,4-1.4,6.1c-0.7,3.3-1.4,6.6-2,9.9
				c-0.3,1.6-0.4,3.3-0.1,5.3c0.5-0.3,1-0.5,1.3-0.8c1.9-1.9,3.5-3.9,4.3-6.6c1.1-4,3.2-7.3,6.5-9.8c1-0.8,2.1-1.4,3.4-1.5
				c2.9-0.3,4.9,2.1,4.2,4.9c-0.8,3.2-4,7-9.5,5.9c-0.7,1.9-1.1,3.9-0.5,6c0.5,1.8,2.3,2.7,4.3,2.3c1.9-0.4,3.6-1.4,5-2.8
				c3-2.7,4.8-6.2,5.9-10.1c0-0.2,0-0.4,0.1-0.6c-0.6-0.5-1.2-0.9-1.7-1.3c-1.2-1.1-1.5-2.4-1.1-3.9c0.4-1.4,1.3-2.2,2.5-2.3
				c1.3-0.1,2.2,0.6,2.8,1.7c0.6,1.1,0.7,2.3,0.5,3.6c0.4,0,0.7,0,1-0.1c1.3-0.5,2.6-1,3.9-1.6c0.4-0.2,0.8-0.4,1.1-0.6
				c2.2-1.1,3.7-0.3,3.4,2.3c-0.2,2.2-0.8,4.3-1.3,6.5c-0.6,2.4-1.3,4.8-2,7.2c-0.1,0.3-0.1,0.5-0.2,1c1.1-0.7,1.7-1.6,2.4-2.4
				c0.7-1,1.4-2,2.2-3.1c0.2-0.2,0.3-0.5,0.5-0.7c0.6-0.7,1.3-0.8,1.9-0.4c0.5,0.4,0.7,1,0.2,1.8c-1.2,1.9-2.4,3.9-3.7,5.6
				c-0.7,1-1.8,1.8-2.9,2.4c-2.5,1.4-5,0-5.1-2.9c0-1.6,0.2-3.3,0.6-4.8c0.7-2.6,1.6-5.1,2.4-7.7
				C138.7,238.2,138.8,237.9,138.9,237.5z M101.3,228.6c-0.7,2.9-1.3,5.6-1.9,8.2c-0.6,2.7-1.4,5.3-2,8c-0.4,1.8-0.6,3.6-0.8,5.4
				c-0.1,0.5,0.1,1,0.2,1.5c0.4-0.1,0.6-0.2,0.7-0.3c1.8-1.2,3.2-2.9,4.5-4.6c0.2-0.2,0.2-0.5,0.2-0.8c0.6-5.2,2.1-10.2,3.4-15.2
				c0.1-0.5,0.2-1,0.4-1.6C104.4,229,102.9,228.8,101.3,228.6z M83.4,241.6c2.9,1.2,6.5-1,6.7-3.9c0.1-1.3-0.9-2.3-2.2-1.9
				c-0.8,0.2-1.6,0.7-2.2,1.2C84.4,238.2,83.7,239.8,83.4,241.6z M117.3,241.8c3.8,0.6,5.5-1.6,6.4-3.8c0.3-0.8,0.6-1.7-0.2-2.4
				c-0.6-0.5-1.5-0.3-2.5,0.5C119.2,237.6,118.1,239.5,117.3,241.8z M131.7,235.5c0.1-0.9,0-1.7-0.7-2.3
				C130.5,234.5,130.5,234.7,131.7,235.5z"/>
			<path class="st11" d="M68,234.8c0.4-0.3,0.7-0.4,1-0.6c2.8-1.7,5.6-0.7,6.8,2.3c0.7,1.8,0.8,3.6,0.4,5.4
				c-0.5,2.4-1.3,4.7-2.6,6.9c-0.7,1.2-1.7,2.3-2.7,3.4c-0.9,1-2.2,1.6-3.5,1.8c-2.7,0.5-4.9-0.7-5.5-3.4c-0.3-1.5-0.5-3.2-0.3-4.7
				c1-7.4,2.7-14.7,5.5-21.7c0.2-0.5,0.4-1,0.7-1.4c0.4-0.7,1.1-0.9,1.7-0.7c0.7,0.3,1,0.8,0.9,1.5c-0.1,0.9-0.3,1.8-0.5,2.7
				c-0.6,2.3-1.2,4.6-1.7,6.8C68.2,233.6,68.1,234.1,68,234.8z M73.5,239.8c-0.1-0.6-0.2-1.4-0.5-2.1c-0.6-1.5-1.8-1.8-2.9-0.6
				c-0.7,0.7-1.5,1.6-1.8,2.5c-0.8,2-1.5,4.2-2,6.3c-0.3,1.3-0.3,2.7-0.4,4c0,1.2,0.5,1.5,1.7,1.1c1.3-0.5,2.3-1.4,3-2.6
				C72.3,245.9,73.1,243.1,73.5,239.8z"/>
		</g>
		<g>
			<path class="st12" d="M292.4,107c-1.6-1.2-3-2.1-4.1-3.3c-2.7-2.8-3.1-7-1.2-10.3c1.8-3,4.9-3.6,7.5-1.3c2,1.8,2.7,4.2,2.9,6.8
				c0.1,1.2,0,2.3,0,3.8c2.3,0.2,4.5-0.3,6.6-1c0.5-0.1,0.7-1,1.1-1.5c0.8-1.1,1.5-2.3,2.4-3.2c1.2-1.2,2.6-1.3,3.7-0.5
				c1.2,0.8,1.5,2,1.1,3.3c-0.9,3.4-1.8,6.8-2.6,10.2c-1.3,5.4-2.9,10.8-3,16.5c0,1.4,0.2,2.8,0.4,4.8c1.5-0.9,2.6-1.4,3.4-2.1
				c2.5-2.5,5.1-4.9,7.1-7.7c3.7-5.2,7-10.8,10.3-16.2c0.5-0.8,0.5-1.9,0.6-2.8c0.2-1.4,0-2.9,0.4-4.3c0.2-0.8,1.1-1.6,1.9-2
				c1.1-0.5,2.2,0.1,2.8,1c0.6,0.8,1,1.7,1.3,2.7c1.9,5.9,3.4,11.8,4,17.9c0.1,0.9,0.3,1.8,0.4,2.5c3.7,1,7.3,1.9,10.9,2.9
				c0.6,0.2,1.3,0.3,1.8,0.7c0.5,0.4,1,1.2,0.9,1.8c-0.1,0.5-0.9,1.3-1.4,1.3c-1,0.1-2.1-0.1-3.2-0.3c-2.8-0.5-5.6-1.6-8.7-1.2
				c-0.2,1.4-0.3,2.9-0.8,4.2c-0.8,2.4-1.4,4.9-2.7,7c-2.2,3.4-5.6,4.8-9.6,4.1c-4.5-0.8-6.8-4.7-5.7-9.1c0.7-2.8,2.4-4.9,4.6-6.5
				c1.6-1.3,3.5-2.3,5.6-3.6c-0.2-1.6-0.4-3.6-0.6-5.5c-0.2-1.9-0.5-3.9-0.9-6.3c-0.7,1-1.1,1.5-1.5,2.1c-1.6,2.8-3.2,5.7-4.7,8.6
				c-2.8,5.2-6.4,9.8-10.7,13.9c-0.3,0.3-0.7,0.6-1,0.9c-5,3.8-10.2,2.1-12-4c-1.1-3.8-0.7-7.5,0-11.3c0.8-4.2,1.8-8.5,2.8-12.9
				c-1.9,0.3-3.8,0.5-5.9,0.8c-0.7,2-1.4,3.9-2.1,5.8c-3.3,8.9-8.6,16.4-16.2,22.3c-3.8,2.9-7.9,4-12.5,3.1
				c-3.4-0.6-5.9-2.6-7.7-5.5c-0.5-0.8-0.8-1.6-1.3-2.5c-1.5,1.2-2.8,2.4-4.3,3.5c-3.4,2.6-6.9,4.8-11.4,5.4
				c-5.6,0.7-10.5-1.8-12.8-7c-0.5-1.1-0.8-2.2-1.2-3.2c-1.9,1.7-3.7,3.5-5.6,5.1c-0.7,0.6-1.4,1.1-2.2,1.6c-4.3,2.5-8.4,0.8-9.6-4
				c-0.2-0.9-0.4-1.7-0.6-2.9c-0.9,0.7-1.7,1.4-2.4,2c-1.3,1.1-2.6,2.3-3.9,3.3c-5.8,4.4-11.2,3-14.4-3.8c-1.2,1.2-2.3,2.3-3.5,3.3
				c-1.4,1.3-2.8,2.6-4.4,3.6c-3.2,2-6.8,0.6-7.6-3.1c-0.4-1.9-0.5-4-0.2-5.9c1.3-7.4,2.8-14.7,4.3-22.1c0.3-1.4,0.5-2.8,0.4-4.5
				c-0.7,0.7-1.7,1.3-2.2,2.1c-2.2,3.4-4.6,6.7-6.4,10.4c-2.6,5.3-4.9,10.9-7.1,16.4c-0.6,1.4-0.7,3-0.9,4.5
				c-0.4,2.3-1.4,3.6-3.2,3.8c-1.8,0.2-3.4-1-4-3.3c-0.3-1.2-0.5-2.5-0.8-3.8c-1.2,0.2-1.6,1.3-2.4,2c-1.3,1.2-2.5,2.7-3.9,3.7
				c-3.3,2.2-6.7,1-7.9-2.8c-0.5-1.7-0.7-3.5-1.1-5.7c-0.8,0.8-1.4,1.5-2.1,2.2c-1.9,1.8-3.7,3.8-5.9,5.2c-4.3,2.8-9.2,2.5-13.4-0.7
				c-4.1-3.1-6.1-7.4-6.3-12.4c-0.3-6.7,1-13.1,5.1-18.7c2.1-2.9,5-5.1,8.4-6.1c1.8-0.5,3.9-0.7,5.8-0.5c4,0.6,6.5,3.7,6.5,7.7
				c0,7.3-4.7,12.1-11.9,12.4c-1.7,0.1-3.4,0-5.5,0c-0.2,3.8-0.4,7.6,2.6,10.8c2.1,2.3,4.3,2.7,7,1.1c4.1-2.4,7.1-6.1,10-9.8
				c0.4-0.4,0.3-1.2,0.5-1.8c1-4.3,2.1-8.6,3.1-12.9c0.2-0.7,0.5-1.4,0.8-2c0.6-1.2,1.5-2,3-1.9c1.3,0.1,2.3,1,2.5,2.8
				c0.2,1.4,0.2,2.9,0,4.3c-0.6,4.5-1.5,8.9-2.1,13.4c-0.4,3.1-0.6,6.3-0.9,9.4c0.2,0.1,0.4,0.2,0.6,0.4c1-0.8,2.1-1.5,3-2.4
				c5-4.6,4-2.9,4.6-9.4c0.6-6.6,2.2-13,4-19.3c0.1-0.3,0.2-0.7,0.4-1c0.5-1.2,1.4-1.9,2.8-1.7c1.3,0.2,2.1,1.2,2.1,2.4
				c0,2.6,0,5.2-0.3,7.8c-0.3,3.3-0.8,6.6-1.3,9.9c-0.1,0.4,0,0.8,0.4,1.3c0.4-0.8,0.7-1.6,1.2-2.3c2.6-4.7,5.1-9.6,7.9-14.2
				c1.4-2.2,3.3-4.1,5.4-5.6c3.6-2.7,6.9-1.3,7.9,3.1c0.9,3.9,0.4,7.7-0.3,11.6c-1,5-2.2,9.9-3.3,14.8c-0.3,1.3-0.3,2.6-0.4,4.4
				c0.9-0.5,1.4-0.8,1.9-1.1c0.5-0.4,0.9-0.9,1.5-1.2c3.9-2.6,6-6,6.5-10.8c0.5-5.9,3.4-11,7-15.7c1.2-1.6,2.6-3,4.2-4.1
				c4.2-3,8.8-2.5,12.6,1c0.6,0.5,1.2,1.1,2.1,1.9c0.5-1.9,0.9-3.6,1.4-5.2c1.3-4.5,2.6-9,4-13.5c0.3-0.9,0.7-2,1.4-2.6
				c0.7-0.6,1.8-0.9,2.6-0.9c1.1,0.1,1.7,1.1,1.7,2.1c0,1.6,0,3.3-0.3,4.8c-1.9,9.4-3.9,18.7-5.9,28.1c-1.1,5.1-2.2,10.2-3.3,15.4
				c-0.2,0.8-0.1,1.6-0.2,2.3c1.1,0.7,1.8,0.1,2.3-0.5c2.9-3.4,5.7-6.7,8.5-10.2c0.4-0.5,0.4-1.2,0.6-1.8c1.3-4.5,3-8.9,5.4-13
				c2.3-4,5.6-6.6,10.1-7.5c3.1-0.6,6-0.5,8.2,2.1c2.2,2.7,2.9,5.8,1.7,9.1c-2.1,6-8.9,9.9-15.2,8.8c-0.6-0.1-1.2-0.2-1.9-0.3
				c-0.8,3.4-1.1,6.7-0.2,10c1.1,4.1,3.8,5.7,7.8,4.4c4.4-1.4,8.2-3.8,11.4-7.1c0.5-0.5,0.8-1.4,0.9-2.1c0.5-5.6,2.1-10.8,4.6-15.8
				c1.3-2.6,3-4.9,4.8-7.1c1.4-1.8,3.4-2.9,5.7-3.6c3.7-1.1,7.1-0.5,9.8,2.2c2.7,2.7,3.1,6.2,1.9,9.8c-2.2,6.8-8.2,10.4-15.2,9.2
				c-0.5-0.1-1-0.2-1.9-0.4c-0.8,4-1.5,7.8,0.3,11.6c1.1,2.3,3.9,3.3,6.5,2.6c3.1-0.9,5.6-2.9,7.9-5.1c5.6-5.1,9.2-11.6,11.7-18.6
				C292.3,108.2,292.3,107.5,292.4,107z M196.1,130.4c0.3,0.2,0.5,0.3,0.8,0.5c1.2-0.7,2.6-1.2,3.7-2c2.9-2.3,5.8-4.7,8.5-7.1
				c0.7-0.6,1.2-1.6,1.4-2.5c0.8-2.8,1.3-5.6,2.1-8.4c0.9-3.1-0.5-5.3-2.5-7.2c-2.2-2.1-4.4-1.8-6.3,0.6c-0.8,1-1.5,2.1-2.1,3.2
				c-3.2,6.3-5,13-5.7,19.9C196,128.2,196.1,129.3,196.1,130.4z M118.6,114.3c2.3,0.8,3.1,0.8,6,0.3c4-0.7,6.3-3,6.6-7
				c0.1-1.5,0.3-3.1-1.2-4.1c-1.6-1.1-3.3-0.8-4.9,0c-0.7,0.4-1.4,0.9-2,1.4C120.3,107.3,119.1,110.6,118.6,114.3z M236.6,115
				c2.3,1.4,4.2,1,6,0.5c3.4-0.9,6-3,7.1-6.4c0.6-1.8,0.1-3.4-1.2-4.7c-1.2-1.2-2.7-0.8-4.1-0.3c-2.1,0.7-3.9,2-4.9,4
				C238.5,110.3,237.6,112.6,236.6,115z M266.5,114.5c1.9,0,3.5,0.2,5.1,0c3.5-0.5,6.4-3.2,7.1-6.5c0.5-2.2-0.2-4.3-1.7-5.3
				c-1.8-1.1-3.9-0.8-5.7,0.9C268.3,106.5,267.4,110.2,266.5,114.5z M331.4,127c-2.9,1.2-4.6,2.7-5.7,4.8c-0.5,0.9-0.7,1.9,0.2,2.7
				c1,0.9,2.1,0.6,2.9-0.1c0.7-0.5,1.2-1.3,1.5-2.2C330.7,130.8,331,129.2,331.4,127z M292.9,101.1c0.2-2.1,0-3.9-1.5-5.4
				C290.3,98.2,290.6,99.2,292.9,101.1z"/>
			<path class="st12" d="M72.5,123.7c-0.4,2.3-0.7,4.2-0.9,6c-0.2,1.5-0.3,3.1-0.7,4.5c-0.4,1.5-0.9,2.9-1.6,4.3
				c-0.8,1.5-2.1,2.2-3.8,2c-1.7-0.3-2.7-1.5-3-3.1c-0.3-1.3-0.4-2.7-0.3-4c0.6-4.4,1.3-8.7,2.1-13.4c-0.8-0.3-1.7-0.7-2.5-1.1
				c-1.3-0.6-2.2-1.5-2.2-3.1c0.1-1.6,1.1-2.4,2.5-2.9c1.2-0.4,2.4-0.6,3.7-0.9c2.9-11.8,5.8-23.6,8.8-35.7c-2.5,0.5-5,1-7.4,1.5
				c-0.6,0.1-1.3,0.4-1.9,0.3c-0.5-0.1-1.3-0.5-1.4-0.9c-0.2-0.4,0.1-1.3,0.5-1.6c0.9-0.7,1.9-1.3,3-1.7c2.5-0.8,5-1.6,7.5-2.2
				c1.3-0.3,2.2-1,2.7-2.3c0.3-1,0.9-2,1.5-2.8c0.8-1.2,1.9-1.9,3.5-1.6c1.5,0.3,2.2,1.4,2.3,3c0,0.3,0.1,0.5,0.1,1
				c2.1-0.2,4.1-0.4,6.1-0.5c4.1-0.3,8.1-0.1,12.1,1c7.9,2.1,12.2,9,10.3,17c-1.8,7.9-6.1,14.3-12.7,18.9c-7.1,5-15,8.3-23.2,10.9
				c-1,0.3-2.1,0.7-3.1,1c-0.2,0.1-0.3,0.2-0.4,0.3c0.1,0.1,0.2,0.3,0.3,0.4c6.6,3.6,11.9,8.7,17.5,13.6
				c6.3,5.4,12.9,10.1,20.6,13.4c5.8,2.5,11.7,3.6,18,2.4c1.9-0.4,3,0.2,3.3,1.4c0.4,1.4-0.3,2.8-2.1,3.3c-3.3,1-6.7,1.3-10.2,0.9
				c-4.6-0.5-8.9-2.1-13.2-3.9c-6.8-3-12.9-7.2-18.7-11.8c-4.1-3.2-8.1-6.6-12.3-9.8C76,126,74.4,125,72.5,123.7z M75,109.7
				c0.9-0.2,1.6-0.2,2.1-0.4c5.3-2.1,10.5-4.2,15.7-6.4c1.8-0.8,3.5-1.9,5-3.2c4.7-3.7,8.2-8.4,9.7-14.3c1.5-5.8-0.9-10.7-7.3-11.7
				c-4.9-0.8-9.7-0.6-14.5-0.1c-1.8,0.2-2.6,0.9-3,2.7c-2,9.1-4.2,18.1-6.3,27.1C75.9,105.4,75.5,107.4,75,109.7z"/>
			<path class="st12" d="M151.7,92c0,2.4-2,4.8-4.4,5c-1,0.1-2.3-0.4-3.2-1c-1.5-1.2-1.8-4.9-0.9-6.5c0.9-1.8,2.8-2.6,4.8-2.1
				C150.1,87.9,151.7,89.9,151.7,92z"/>
		</g>
	</g>
	<g>
		<path class="st10" d="M224.6,255.6c10.3-6.1,39-26.9,67.1-10.8s21.8,9,40.6,4.4c18.8-4.6,36.4,8.2,36.6,12.8s-29.1,27.8-48.3,10.8
			c6,16.8,20.7,27.8,21.6,39.9c0.9,12.1-4.2,49.6-74.1,49.6s-82.3-37.1-72.1-54.7c10.1-17.6,18.1-29.3,19.4-35.3
			c-20.3,7.7-47.9-2.4-46.5-12.8C212.4,225.1,208.5,265,224.6,255.6z"/>
		<g>
			<g>
				<circle cx="231.7" cy="318.6" r="7.1"/>
				<circle class="st9" cx="230" cy="316.6" r="1.7"/>
				<circle class="st9" cx="235.7" cy="320.3" r="1.2"/>
			</g>
			<g>
				<circle cx="308.7" cy="318.6" r="7.1"/>
				<circle class="st9" cx="307" cy="316.6" r="1.7"/>
				<circle class="st9" cx="312.7" cy="320.3" r="1.2"/>
			</g>
		</g>
		<g>
			<path class="st18" d="M245.5,250.8c-3.5-15-8.4-36-4.7-55.8c3.6-19.9-10.5-3.3-17.8,18.3s-20.5-33.9-23.8-42.8
				c-4.9-12.8-22.3-29.3-14.3-2s14.1,38.8,13.2,44.6c-0.9,5.7-19.9-2.4-23.4-4c-3.5-1.5-12.1,3.8-2.6,10.1s39.7,3.5,50.1,13.9
				c10.4,10.4,11.9,21.8,12.6,27.8C239.3,261.1,245.5,250.8,245.5,250.8z"/>
			<path class="st18" d="M294.7,250.8c3.5-15,8.4-36,4.7-55.8c-3.6-19.9,10.5-3.3,17.8,18.3c7.3,21.6,20.5-33.9,23.8-42.8
				c4.9-12.8,22.3-29.3,14.3-2c-7.9,27.4-14.1,38.8-13.2,44.6c0.9,5.7,19.9-2.4,23.4-4c3.5-1.5,12.1,3.8,2.6,10.1
				s-39.7,3.5-50.1,13.9c-10.4,10.4-11.9,21.8-12.6,27.8C300.9,261.1,294.7,250.8,294.7,250.8z"/>
		</g>
		<g>
			<path class="st0" d="M219.9,261.5c-12.8-6.4-34.6-4.2-34.6,2.4C185.3,270.6,204.7,273,219.9,261.5z"/>
			<path class="st0" d="M316.7,261.5c12.8-6.4,34.6-4.2,34.6,2.4C351.3,270.6,332,273,316.7,261.5z"/>
		</g>
		<g>
			<g>
				<path d="M226.7,280.7h-2.9c0-5.4,4.9-9.8,10.9-9.8v2.9C230.3,273.8,226.7,276.9,226.7,280.7z"/>
			</g>
			<g>
				<path d="M314,280.7h-2.9c0-3.8-3.6-7-8.1-7v-2.9C309.1,270.9,314,275.3,314,280.7z"/>
			</g>
		</g>
		<g>
			<ellipse class="st11" cx="268.4" cy="342.7" rx="33.2" ry="24.5"/>
			<g>
				<path d="M269,358.3c-7.6,0-15.5-2.9-21.9-8.6l3.2-3.6c10.9,9.7,26.6,9.9,35.1,0.4l3.6,3.2C283.8,355.5,276.6,358.3,269,358.3z"
					/>
			</g>
			<g>
				<circle class="st12" cx="268.4" cy="327.4" r="15.3"/>
				<g>
					<polygon class="st5" points="260,325 267.4,320.2 264.3,317 256.7,323.7 					"/>
				</g>
			</g>
		</g>
	</g>
</g>
</svg>
